<svg width="614" height="218" viewBox="0 0 614 218" fill="none" xmlns="http://www.w3.org/2000/svg">
<path d="M0 16C0 7.16344 7.16344 0 16 0H598C606.837 0 614 7.16344 614 16V202C614 210.837 606.837 218 598 218H16C7.16343 218 0 210.837 0 202V16Z" fill="white" fill-opacity="0.1"/>
<path d="M16 0.5H598C606.56 0.5 613.5 7.43959 613.5 16V202C613.5 210.56 606.56 217.5 598 217.5H16C7.43959 217.5 0.5 210.56 0.5 202V16C0.5 7.57345 7.22424 0.717246 15.5996 0.504883L16 0.5Z" stroke="white" stroke-opacity="0.2"/>
<path d="M25 37C25 30.3726 30.3726 25 37 25H61C67.6274 25 73 30.3726 73 37V61C73 67.6274 67.6274 73 61 73H37C30.3726 73 25 67.6274 25 61V37Z" fill="#3B82F6" fill-opacity="0.3"/>
<path d="M53 44H59V50" stroke="white" stroke-width="2" stroke-linecap="round" stroke-linejoin="round"/>
<path d="M59 44L50.5 52.5L45.5 47.5L39 54" stroke="white" stroke-width="2" stroke-linecap="round" stroke-linejoin="round"/>
<path d="M89 49C89 45.6863 91.6863 43 95 43H583C586.314 43 589 45.6863 589 49C589 52.3137 586.314 55 583 55H95C91.6863 55 89 52.3137 89 49Z" fill="#60A5FA" fill-opacity="0.3"/>
<path d="M89 49C89 45.6863 91.6863 43 95 43H458C461.314 43 464 45.6863 464 49C464 52.3137 461.314 55 458 55H95C91.6863 55 89 52.3137 89 49Z" fill="#93C5FD" fill-opacity="0.5"/>
<path d="M25 109C25 102.373 30.3726 97 37 97H190.328C196.956 97 202.328 102.373 202.328 109V181C202.328 187.627 196.956 193 190.328 193H37C30.3726 193 25 187.627 25 181V109Z" fill="#3B82F6" fill-opacity="0.2"/>
<path d="M37 97.5H190.328C196.679 97.5 201.828 102.649 201.828 109V181C201.828 187.351 196.679 192.5 190.328 192.5H37C30.6487 192.5 25.5 187.351 25.5 181V109C25.5 102.847 30.3319 97.8227 36.4082 97.5146L37 97.5Z" stroke="white" stroke-opacity="0.1"/>
<path d="M218.328 109C218.328 102.373 223.701 97 230.328 97H383.656C390.284 97 395.656 102.373 395.656 109V181C395.656 187.627 390.284 193 383.656 193H230.328C223.701 193 218.328 187.627 218.328 181V109Z" fill="#3B82F6" fill-opacity="0.2"/>
<path d="M230.328 97.5H383.656C390.008 97.5 395.156 102.649 395.156 109V181C395.156 187.351 390.008 192.5 383.656 192.5H230.328C223.977 192.5 218.828 187.351 218.828 181V109C218.828 102.847 223.66 97.8227 229.736 97.5146L230.328 97.5Z" stroke="white" stroke-opacity="0.1"/>
<path d="M411.656 109C411.656 102.373 417.029 97 423.656 97H576.984C583.612 97 588.984 102.373 588.984 109V181C588.984 187.627 583.612 193 576.984 193H423.656C417.029 193 411.656 187.627 411.656 181V109Z" fill="#3B82F6" fill-opacity="0.2"/>
<path d="M423.656 97.5H576.984C583.336 97.5 588.484 102.649 588.484 109V181C588.484 187.351 583.336 192.5 576.984 192.5H423.656C417.305 192.5 412.156 187.351 412.156 181V109C412.156 102.847 416.988 97.8227 423.064 97.5146L423.656 97.5Z" stroke="white" stroke-opacity="0.1"/>
</svg>
