<svg width="327" height="234" viewBox="0 0 327 234" fill="none" xmlns="http://www.w3.org/2000/svg">
<g clip-path="url(#clip0_87_733)">
<mask id="mask0_87_733" style="mask-type:luminance" maskUnits="userSpaceOnUse" x="165" y="98" width="336" height="336">
<path d="M165.633 98.7398L500.783 98.7397L500.783 433.89L165.633 433.89L165.633 98.7398Z" fill="white"/>
</mask>
<g mask="url(#mask0_87_733)">
<path d="M366.495 85.0586H396.109V185.426H365.057C309.52 185.426 272.657 198.534 272.657 252.154V253.113C272.657 307.213 309.52 317.344 365.057 317.344H396.109H402.886H495.769V420.209H368.409C247.748 420.209 170.644 348.393 170.644 251.675V250.717C170.647 154.006 246.8 85.0586 366.495 85.0586Z" fill="url(#paint0_linear_87_733)" fill-opacity="0.5"/>
</g>
<mask id="mask1_87_733" style="mask-type:luminance" maskUnits="userSpaceOnUse" x="-111" y="-98" width="336" height="336">
<path d="M224.778 237.236L-110.372 237.236L-110.372 -97.9142L224.778 -97.9142L224.778 237.236Z" fill="white"/>
</mask>
<g mask="url(#mask1_87_733)">
<path d="M23.916 237.236H-5.698V136.869H25.354C80.891 136.869 117.754 123.761 117.754 70.1398V69.1818C117.754 15.0818 80.891 4.94983 25.354 4.94983H-5.698H-12.4747H-105.358V-97.9141L22.002 -97.9141C142.663 -97.9141 219.767 -26.0982 219.767 70.6198V71.5778C219.764 168.289 143.611 237.236 23.916 237.236Z" fill="url(#paint1_linear_87_733)" fill-opacity="0.5"/>
</g>
</g>
<defs>
<linearGradient id="paint0_linear_87_733" x1="170.644" y1="252.634" x2="495.769" y2="252.634" gradientUnits="userSpaceOnUse">
<stop stop-color="white"/>
<stop offset="1" stop-color="white" stop-opacity="0"/>
</linearGradient>
<linearGradient id="paint1_linear_87_733" x1="219.767" y1="69.6608" x2="-105.358" y2="69.6608" gradientUnits="userSpaceOnUse">
<stop stop-color="white"/>
<stop offset="1" stop-color="white" stop-opacity="0"/>
</linearGradient>
<clipPath id="clip0_87_733">
<rect width="700" height="742" fill="white" transform="translate(-110.5 -97.9141)"/>
</clipPath>
</defs>
</svg>
