<svg width="249" height="234" viewBox="0 0 249 234" fill="none" xmlns="http://www.w3.org/2000/svg">
<g clip-path="url(#clip0_87_751)">
<mask id="mask0_87_751" style="mask-type:luminance" maskUnits="userSpaceOnUse" x="26" y="148" width="336" height="355">
<path d="M26 148L361.15 148L361.15 502.15L26 502.15L26 148Z" fill="white"/>
</mask>
<g mask="url(#mask0_87_751)">
<path d="M226.862 133.543H256.476V239.6H225.424C169.887 239.6 133.024 253.451 133.024 310.111V311.125C133.024 368.292 169.887 378.997 225.424 378.997H256.476H263.253H356.136V487.693H228.776C108.115 487.693 31.0109 411.806 31.0109 309.605V308.593C31.0139 206.399 107.167 133.543 226.862 133.543Z" fill="url(#paint0_linear_87_751)" fill-opacity="0.5"/>
</g>
<mask id="mask1_87_751" style="mask-type:luminance" maskUnits="userSpaceOnUse" x="101" y="-98" width="336" height="336">
<path d="M101.448 237.236L436.598 237.236L436.598 -97.9142L101.448 -97.9142L101.448 237.236Z" fill="white"/>
</mask>
<g mask="url(#mask1_87_751)">
<path d="M302.31 237.236H331.924V136.869H300.872C245.335 136.869 208.472 123.761 208.472 70.1398V69.1818C208.472 15.0818 245.335 4.94983 300.872 4.94983H331.924H338.701H431.584V-97.9141L304.224 -97.9141C183.563 -97.9141 106.459 -26.0982 106.459 70.6198V71.5778C106.462 168.289 182.615 237.236 302.31 237.236Z" fill="url(#paint1_linear_87_751)" fill-opacity="0.5"/>
</g>
</g>
<defs>
<linearGradient id="paint0_linear_87_751" x1="31.0109" y1="310.618" x2="356.136" y2="310.618" gradientUnits="userSpaceOnUse">
<stop stop-color="white"/>
<stop offset="1" stop-color="white" stop-opacity="0"/>
</linearGradient>
<linearGradient id="paint1_linear_87_751" x1="106.459" y1="69.6608" x2="431.584" y2="69.6608" gradientUnits="userSpaceOnUse">
<stop stop-color="white"/>
<stop offset="1" stop-color="white" stop-opacity="0"/>
</linearGradient>
<clipPath id="clip0_87_751">
<rect width="700" height="742" fill="white" transform="matrix(-1 0 0 1 436.726 -97.9141)"/>
</clipPath>
</defs>
</svg>
